<svg width="128" height="128" viewBox="0 0 24 24" fill="none" xmlns="http://www.w3.org/2000/svg">
  <title>Comet Loop</title>
  <defs>
    <linearGradient id="loopStroke" x1="4.5" y1="6" x2="19.8" y2="18.4" gradientUnits="userSpaceOnUse">
      <stop stop-color="#F8FBFF"/>
      <stop offset="0.45" stop-color="#7EE6FF"/>
      <stop offset="0.82" stop-color="#B5F8FF"/>
      <stop offset="1" stop-color="#F4D6A4"/>
    </linearGradient>
    <radialGradient id="loopGlow" cx="0" cy="0" r="1" gradientUnits="userSpaceOnUse" gradientTransform="translate(12 12) rotate(90) scale(8.8)">
      <stop stop-color="#7FE6FF" stop-opacity="0.24"/>
      <stop offset="1" stop-color="#0B1123" stop-opacity="0"/>
    </radialGradient>
  </defs>
  <circle cx="12" cy="12" r="8.9" fill="url(#loopGlow)"/>
  <path d="M7.12 8.42C8.85 5.79 12.4 4.53 15.46 5.38C18.48 6.21 20.33 8.98 19.95 12.02C19.54 15.29 16.71 17.91 13.4 18.16C10.37 18.39 7.41 16.74 6.18 13.98C5.12 11.62 5.5 8.96 7.12 7.09" stroke="url(#loopStroke)" stroke-width="1.8" stroke-linecap="round"/>
  <path d="M3.58 11.42C5.1 10.9 6.39 10.38 7.44 9.87" stroke="url(#loopStroke)" stroke-width="1.6" stroke-linecap="round"/>
  <path d="M2.86 14.12C4.74 13.48 6.22 12.87 7.41 12.3" stroke="url(#loopStroke)" stroke-width="1.2" stroke-linecap="round" opacity="0.9"/>
  <path d="M16.78 6.82L17.32 8.05L18.56 8.6L17.32 9.14L16.78 10.39L16.24 9.14L15 8.6L16.24 8.05L16.78 6.82Z" fill="#F5D6A4"/>
  <circle cx="7.2" cy="8.12" r="0.8" fill="#EFFAFF"/>
</svg>
